Coordinates
version=1
nRows=34
nColumns=19
inDegrees=yes

Units are S.I. units (second, meters, Newtons, ...)
If the header above contains a line with 'inDegrees', this indicates whether rotational values are in degrees (yes) or radians (no).

endheader
time	pelvis_tilt	pelvis_list	pelvis_rotation	pelvis_tx	pelvis_ty	pelvis_tz	hip_flexion_r	hip_adduction_r	hip_rotation_r	knee_angle_r	knee_angle_r_beta	ankle_angle_r	hip_flexion_l	hip_adduction_l	hip_rotation_l	knee_angle_l	knee_angle_l_beta	ankle_angle_l
     12.18000000	      3.62317098	     -7.69580554	     -0.04870880	      1.98855637	      0.86718184	      1.01135612	     22.01721589	     11.25664251	     -4.26632734	     16.09061226	      0.28083416	     -7.06904102	    -23.09864719	    -13.11897735	    -18.50772865	     57.42932912	      1.00233088	    -14.71398384
     12.18666667	      4.06281501	     -8.10838894	     -0.69765834	      1.98825826	      0.86468247	      1.01266699	     21.16934926	     12.00359890	     -5.29846349	     17.49960383	      0.30542570	     -6.63528003	    -21.93099039	    -13.62137075	    -17.85650280	     62.12481160	      1.08428251	    -14.10423580
     12.19333333	      4.23784815	     -8.38160597	     -1.52077892	      1.98770923	      0.86169520	      1.01389376	     20.75228896	     12.57124164	     -6.06272121	     19.57760394	      0.34169365	     -5.66627705	    -20.35831241	    -13.86415538	    -17.23539411	     66.77764194	      1.16548972	    -13.78090941
     12.20000000	      4.80643375	     -8.71605529	     -2.42348089	      1.98689768	      0.85886642	      1.01487998	     19.90294156	     13.17075020	     -6.45547281	     21.96394275	      0.38334312	     -4.26147466	    -19.23102330	    -14.09415024	    -16.87650909	     71.19534133	      1.24259312	    -13.65769698
     12.20666667	      4.51086066	     -8.68684878	     -3.44240330	      1.98579724	      0.85510082	      1.01578999	     20.17068332	     13.37033413	     -6.48058319	     24.93304093	      0.43516366	     -2.28809124	    -16.87334310	    -13.89849522	    -16.24004878	     75.65977134	      1.32051212	    -13.69951637
     12.21333333	      4.58516215	     -8.71561110	     -4.54455308	      1.98440513	      0.85154158	      1.01662205	     19.98288573	     13.65741182	     -6.03025098	     27.96992352	      0.48816726	     -0.00555762	    -14.93823763	    -13.79466383	    -15.95602515	     79.85683012	      1.39376462	    -13.83664855
     12.22000000	      4.61939665	     -8.73349614	     -5.66028077	      1.98279693	      0.84790957	      1.01734987	     19.78426289	     13.95247958	     -5.24412889	     31.01324891	      0.54128331	      2.56504953	    -12.87799296	    -13.76065869	    -15.77332673	     83.86747359	      1.46376355	    -13.98071056
     12.22666667	      5.09701510	     -8.97553889	     -6.66024426	      1.98095797	      0.84474826	      1.01789957	     18.96870579	     14.42458891	     -4.27999526	     33.86040313	      0.59097552	      5.21256198	    -11.28391753	    -14.03577426	    -15.67678445	     87.59748244	      1.52886449	    -14.01620758
     12.23333333	      4.58953149	     -8.69578589	     -7.80331760	      1.97879540	      0.84089183	      1.01867362	     19.27042667	     14.50402892	     -2.95592968	     36.76301026	      0.64163557	      7.93239430	     -8.29883237	    -13.93761926	    -15.44779704	     91.26340994	      1.59284699	    -14.06191316
     12.24000000	      5.33254736	     -9.05705897	     -8.44561613	      1.97662031	      0.83867530	      1.01893418	     17.77194338	     14.98450404	     -1.84512264	     38.86165282	      0.67826379	     10.50243448	     -6.73065552	    -14.56961368	    -15.12378158	     94.47298215	      1.64886459	    -14.05776593
     12.24666667	      4.46699661	     -8.77902953	     -9.39812083	      1.97415544	      0.83496422	      1.01962353	     18.25349187	     15.01020664	     -0.66730265	     41.31671393	      0.72111269	     12.94082948	     -3.06500767	    -14.75613452	    -14.64957120	     97.70371860	      1.70525158	    -13.73182825
     12.25333333	      4.44063467	     -8.87812364	     -9.86319214	      1.97176112	      0.83268771	      1.01981363	     17.42542873	     15.14925133	      0.18930252	     43.00244364	      0.75053423	     15.09952691	     -0.24056494	    -15.32470638	    -13.87294063	    100.48416518	      1.75377953	    -13.40115096
     12.26000000	      5.08511682	     -9.08689225	    -10.26668645	      1.96934352	      0.83170881	      1.02000804	     15.56166885	     15.25905383	      1.18472634	     44.16358192	      0.77079991	     16.96243681	      1.78719883	    -15.94925471	    -13.21376880	    102.71351400	      1.79268901	    -13.10075723
     12.26666667	      4.59049088	     -9.29078955	    -10.23533399	      1.96712520	      0.82992794	      1.01978516	     14.84805948	     15.29980825	      1.34162953	     44.99559905	      0.78532135	     18.50044697	      5.50562500	    -16.71301608	    -11.71649529	    104.94832015	      1.83169373	    -12.59525958
     12.27333333	      4.66733129	     -9.41782898	    -10.24152373	      1.96501553	      0.82933308	      1.01964289	     13.26125728	     15.17485653	      1.73632579	     45.41623359	      0.79266281	     19.79201879	      8.49859397	    -17.23172579	    -10.43113128	    106.56308165	      1.85987664	    -12.13708816
     12.28000000	      4.77194883	     -9.57853106	    -10.13735195	      1.96318613	      0.82930303	      1.01942586	     11.40269608	     15.02060146	      2.00314517	     45.39586884	      0.79230738	     20.76307178	     11.45446479	    -17.72340992	     -9.06715589	    107.74166832	      1.88044685	    -11.70976084
     12.28666667	      4.79548581	     -9.67553686	     -9.96344618	      1.96162402	      0.82967102	      1.01923537	      9.44810038	     14.79053181	      2.19849388	     45.02389179	      0.78581515	     21.42025083	     14.47965905	    -18.08108868	     -7.67821027	    108.49408293	      1.89357897	    -11.33512919
     12.29333333	      4.84568417	     -9.74398439	     -9.80818021	      1.96039213	      0.83056268	      1.01915711	      7.25108718	     14.52796126	      2.42663422	     44.28132856	      0.77285498	     21.77553420	     17.32720911	    -18.35136725	     -6.42205373	    108.77910596	      1.89855356	    -10.97380706
     12.30000000	      4.89424067	     -9.75465540	     -9.68222635	      1.95949962	      0.83193848	      1.01922965	      4.87703711	     14.22920411	      2.74379417	     43.21221939	      0.75419551	     21.81963013	     19.99212739	    -18.53200387	     -5.34311788	    108.60544707	      1.89552264	    -10.64472577
     12.30666667	      4.95148233	     -9.70306531	     -9.62256596	      1.95899065	      0.83376867	      1.01950676	      2.33246666	     13.87622198	      3.15619179	     41.84359166	      0.73030845	     21.54038313	     22.40251437	    -18.65429026	     -4.51243274	    107.98258886	      1.88465171	    -10.31413370
     12.31333333	      5.09106860	     -9.56903882	     -9.66051493	      1.95881770	      0.83613663	      1.02003161	     -0.43418874	     13.44277138	      3.75718267	     40.20444462	      0.70169993	     20.91774826	     24.42136524	    -18.71700328	     -4.00465082	    106.89801827	      1.86572238	     -9.95425951
     12.32000000	      5.47936398	     -9.25272215	     -9.91949825	      1.95899116	      0.83921884	      1.02090521	     -3.55155729	     12.74337620	      4.62260316	     38.35960674	      0.66950144	     19.97149335	     25.72621937	    -18.68913214	     -4.08958942	    105.29583600	      1.83775903	     -9.52360053
     12.32666667	      5.51105345	     -8.89863470	    -10.20811134	      1.95948005	      0.84219900	      1.02193834	     -6.29676707	     12.04062911	      5.44197588	     36.38160584	      0.63497881	     18.61959273	     27.24928273	    -18.68795543	     -4.24299698	    103.40857820	      1.80482016	     -9.06739611
     12.33333333	      5.71890692	     -8.31762651	    -10.68211126	      1.96025703	      0.84574565	      1.02319710	     -9.18711146	     10.98719214	      6.38635211	     34.32874484	      0.59914963	     16.95215958	     28.17408670	    -18.53753464	     -4.93818708	    101.04039931	      1.76348765	     -8.56260117
     12.34000000	      5.79801416	     -7.63206306	    -11.20142453	      1.96131764	      0.84933825	      1.02456911	    -11.85742741	      9.78023323	      7.21657113	     32.24223058	      0.56273308	     14.90656609	     29.00015703	    -18.33997908	     -5.84295318	     98.34805142	      1.71649731	     -8.00767568
     12.34666667	      5.80605668	     -6.84447021	    -11.68556529	      1.96264350	      0.85299745	      1.02591545	    -14.35261407	      8.43373289	      7.85266871	     30.12557770	      0.52579052	     12.51853368	     29.70177601	    -18.02798846	     -6.87787819	     95.33281119	      1.66387144	     -7.44432679
     12.35333333	      5.78641196	     -5.92739174	    -12.19545537	      1.96419112	      0.85669943	      1.02725243	    -16.66652349	      6.90923466	      8.33131491	     28.07250688	      0.48995767	      9.83296172	     30.20551119	    -17.58615752	     -8.12659254	     91.97893311	      1.60533523	     -6.88237576
     12.36000000	      5.66978021	     -4.94782622	    -12.51991097	      1.96594730	      0.86026577	      1.02832885	    -18.75322974	      5.36788177	      8.46523928	     26.04923441	      0.45464491	      6.88735454	     30.73140836	    -16.94465987	     -9.27456611	     88.36507784	      1.54226155	     -6.38573912
     12.36666667	      5.42678322	     -3.89637394	    -12.61725570	      1.96788165	      0.86356226	      1.02906257	    -20.56329020	      3.84279245	      8.16475292	     24.12876936	      0.42112647	      3.74436784	     31.34157185	    -16.04896817	    -10.25537284	     84.50324746	      1.47485990	     -5.96663559
     12.37333333	      4.07830955	     -3.02308808	    -12.71943990	      1.96979238	      0.86556688	      1.02950757	    -20.85342538	      2.78364469	      7.81551043	     22.84057606	      0.39864326	      0.44129520	     33.18434491	    -15.42675167	    -10.87547863	     80.63320240	      1.40731487	     -5.64238212
     12.38000000	      4.68914014	     -1.81124665	    -12.12957963	      1.97204146	      0.86933824	      1.02933721	    -23.58022150	      1.17483041	      6.60295555	     20.69712366	      0.36123295	     -2.82956316	     32.66188435	    -13.64309656	    -11.53602937	     76.09818162	      1.32816382	     -5.43156881
     12.38666667	      4.10352060	     -0.82901471	    -11.39690873	      1.97418826	      0.87157100	      1.02862710	    -24.69202967	      0.17374439	      5.20285963	     19.30835613	      0.33699439	     -6.08484128	     33.53337554	    -12.03545954	    -11.53717708	     71.62115780	      1.25002502	     -5.30408684
     12.39333333	      3.26619875	      0.09049020	    -10.33722244	      1.97629097	      0.87322155	      1.02737519	    -25.39262249	     -0.55062555	      3.40193197	     18.26483301	      0.31878147	     -9.11372530	     34.62904517	    -10.17394071	    -11.04452027	     66.97368821	      1.16891137	     -5.25613026
     12.40000000	      2.46946697	      0.89793879	     -9.08718988	      1.97833723	      0.87457904	      1.02566814	    -26.01915984	     -1.07542328	      1.41087837	     17.52855657	      0.30593103	    -11.91924375	     35.50917964	     -8.15107151	    -10.20912685	     62.13524339	      1.08446458	     -5.21763095
